<mxfile host="Electron" modified="2024-05-28T16:27:40.342Z" agent="Mozilla/5.0 (Windows NT 10.0; Win64; x64) AppleWebKit/537.36 (KHTML, like Gecko) draw.io/24.4.8 Chrome/124.0.6367.207 Electron/30.0.6 Safari/537.36" etag="BVsKi5IwXRWJYEJ70cdJ" version="24.4.8" type="device">
  <diagram name="Page-1" id="M5SfKmcCoVQ_3VWvBBKy">
    <mxGraphModel dx="2069" dy="1809" grid="1" gridSize="10" guides="1" tooltips="1" connect="1" arrows="1" fold="1" page="1" pageScale="1" pageWidth="850" pageHeight="1100" background="#ffffff" math="0" shadow="0">
      <root>
        <mxCell id="0" />
        <mxCell id="1" parent="0" />
        <mxCell id="I_CS-igt-KB2UE6HuX3w-21" value="" style="rounded=0;whiteSpace=wrap;html=1;sketch=1;hachureGap=4;jiggle=2;curveFitting=1;fontFamily=Architects Daughter;fontSource=https%3A%2F%2Ffonts.googleapis.com%2Fcss%3Ffamily%3DArchitects%2BDaughter;fillColor=#bac8d3;strokeColor=#23445d;" vertex="1" parent="1">
          <mxGeometry x="-70" y="10" width="170" height="620" as="geometry" />
        </mxCell>
        <mxCell id="I_CS-igt-KB2UE6HuX3w-2" value="CLI" style="rounded=0;whiteSpace=wrap;html=1;sketch=1;hachureGap=4;jiggle=2;curveFitting=1;fontFamily=Architects Daughter;fontSource=https%3A%2F%2Ffonts.googleapis.com%2Fcss%3Ffamily%3DArchitects%2BDaughter;fontStyle=1;fontSize=15;fillColor=#6a00ff;strokeColor=#3700CC;fontColor=#000000;" vertex="1" parent="1">
          <mxGeometry x="-190" y="760" width="410" height="60" as="geometry" />
        </mxCell>
        <mxCell id="I_CS-igt-KB2UE6HuX3w-1" value="" style="shape=hexagon;perimeter=hexagonPerimeter2;whiteSpace=wrap;html=1;fixedSize=1;sketch=1;hachureGap=4;jiggle=2;curveFitting=1;fontFamily=Architects Daughter;fontSource=https%3A%2F%2Ffonts.googleapis.com%2Fcss%3Ffamily%3DArchitects%2BDaughter;fillColor=#d5e8d4;strokeColor=#82b366;rotation=90;horizontal=0;direction=west;" vertex="1" parent="1">
          <mxGeometry x="-45" y="50" width="120" height="110" as="geometry" />
        </mxCell>
        <mxCell id="I_CS-igt-KB2UE6HuX3w-4" value="Integration areas" style="text;html=1;align=center;verticalAlign=middle;whiteSpace=wrap;rounded=0;fontFamily=Architects Daughter;fontSource=https%3A%2F%2Ffonts.googleapis.com%2Fcss%3Ffamily%3DArchitects%2BDaughter;fontStyle=1;fontSize=15;" vertex="1" parent="1">
          <mxGeometry x="-50" y="600" width="130" height="30" as="geometry" />
        </mxCell>
        <mxCell id="I_CS-igt-KB2UE6HuX3w-10" value="Port" style="rounded=0;whiteSpace=wrap;html=1;sketch=1;hachureGap=4;jiggle=2;curveFitting=1;fontFamily=Architects Daughter;fontSource=https%3A%2F%2Ffonts.googleapis.com%2Fcss%3Ffamily%3DArchitects%2BDaughter;direction=south;horizontal=0;fillColor=#fad9d5;strokeColor=#ae4132;" vertex="1" parent="1">
          <mxGeometry x="-70" y="65" width="30" height="80" as="geometry" />
        </mxCell>
        <mxCell id="I_CS-igt-KB2UE6HuX3w-11" value="Port" style="rounded=0;whiteSpace=wrap;html=1;sketch=1;hachureGap=4;jiggle=2;curveFitting=1;fontFamily=Architects Daughter;fontSource=https%3A%2F%2Ffonts.googleapis.com%2Fcss%3Ffamily%3DArchitects%2BDaughter;direction=south;horizontal=0;fillColor=#fad9d5;strokeColor=#ae4132;" vertex="1" parent="1">
          <mxGeometry x="70" y="65" width="30" height="80" as="geometry" />
        </mxCell>
        <mxCell id="I_CS-igt-KB2UE6HuX3w-14" value="" style="endArrow=none;dashed=1;html=1;sketch=1;hachureGap=4;jiggle=2;curveFitting=1;fontFamily=Architects Daughter;fontSource=https%3A%2F%2Ffonts.googleapis.com%2Fcss%3Ffamily%3DArchitects%2BDaughter;" edge="1" parent="1">
          <mxGeometry width="50" height="50" relative="1" as="geometry">
            <mxPoint x="14.659999999999997" y="44" as="sourcePoint" />
            <mxPoint x="14.659999999999997" y="-36" as="targetPoint" />
          </mxGeometry>
        </mxCell>
        <mxCell id="I_CS-igt-KB2UE6HuX3w-15" value="Driving" style="text;html=1;align=center;verticalAlign=middle;whiteSpace=wrap;rounded=0;fontFamily=Architects Daughter;fontSource=https%3A%2F%2Ffonts.googleapis.com%2Fcss%3Ffamily%3DArchitects%2BDaughter;" vertex="1" parent="1">
          <mxGeometry x="-60" y="-40" width="60" height="30" as="geometry" />
        </mxCell>
        <mxCell id="I_CS-igt-KB2UE6HuX3w-16" value="Driven" style="text;html=1;align=center;verticalAlign=middle;whiteSpace=wrap;rounded=0;fontFamily=Architects Daughter;fontSource=https%3A%2F%2Ffonts.googleapis.com%2Fcss%3Ffamily%3DArchitects%2BDaughter;" vertex="1" parent="1">
          <mxGeometry x="55" y="-40" width="60" height="30" as="geometry" />
        </mxCell>
        <mxCell id="I_CS-igt-KB2UE6HuX3w-18" value="Adapter" style="rounded=0;whiteSpace=wrap;html=1;sketch=1;hachureGap=4;jiggle=2;curveFitting=1;fontFamily=Architects Daughter;fontSource=https%3A%2F%2Ffonts.googleapis.com%2Fcss%3Ffamily%3DArchitects%2BDaughter;direction=south;horizontal=0;fillColor=#b1ddf0;strokeColor=#10739e;" vertex="1" parent="1">
          <mxGeometry x="-100" y="65" width="30" height="80" as="geometry" />
        </mxCell>
        <mxCell id="I_CS-igt-KB2UE6HuX3w-19" value="Adapter" style="rounded=0;whiteSpace=wrap;html=1;sketch=1;hachureGap=4;jiggle=2;curveFitting=1;fontFamily=Architects Daughter;fontSource=https%3A%2F%2Ffonts.googleapis.com%2Fcss%3Ffamily%3DArchitects%2BDaughter;direction=south;horizontal=0;fillColor=#b1ddf0;strokeColor=#10739e;" vertex="1" parent="1">
          <mxGeometry x="100" y="65" width="30" height="80" as="geometry" />
        </mxCell>
        <mxCell id="I_CS-igt-KB2UE6HuX3w-23" value="Plugin" style="rounded=0;whiteSpace=wrap;html=1;sketch=1;hachureGap=4;jiggle=2;curveFitting=1;fontFamily=Architects Daughter;fontSource=https%3A%2F%2Ffonts.googleapis.com%2Fcss%3Ffamily%3DArchitects%2BDaughter;direction=north;horizontal=1;fillColor=#b1ddf0;strokeColor=#10739e;textShadow=1;" vertex="1" parent="1">
          <mxGeometry x="-190" y="65" width="90" height="500" as="geometry" />
        </mxCell>
        <mxCell id="I_CS-igt-KB2UE6HuX3w-25" value="" style="shape=hexagon;perimeter=hexagonPerimeter2;whiteSpace=wrap;html=1;fixedSize=1;sketch=1;hachureGap=4;jiggle=2;curveFitting=1;fontFamily=Architects Daughter;fontSource=https%3A%2F%2Ffonts.googleapis.com%2Fcss%3Ffamily%3DArchitects%2BDaughter;fillColor=#d5e8d4;strokeColor=#82b366;rotation=90;horizontal=0;direction=west;" vertex="1" parent="1">
          <mxGeometry x="-45" y="190" width="120" height="110" as="geometry" />
        </mxCell>
        <mxCell id="I_CS-igt-KB2UE6HuX3w-26" value="Port" style="rounded=0;whiteSpace=wrap;html=1;sketch=1;hachureGap=4;jiggle=2;curveFitting=1;fontFamily=Architects Daughter;fontSource=https%3A%2F%2Ffonts.googleapis.com%2Fcss%3Ffamily%3DArchitects%2BDaughter;direction=south;horizontal=0;fillColor=#fad9d5;strokeColor=#ae4132;" vertex="1" parent="1">
          <mxGeometry x="-70" y="205" width="30" height="80" as="geometry" />
        </mxCell>
        <mxCell id="I_CS-igt-KB2UE6HuX3w-27" value="Port" style="rounded=0;whiteSpace=wrap;html=1;sketch=1;hachureGap=4;jiggle=2;curveFitting=1;fontFamily=Architects Daughter;fontSource=https%3A%2F%2Ffonts.googleapis.com%2Fcss%3Ffamily%3DArchitects%2BDaughter;direction=south;horizontal=0;fillColor=#fad9d5;strokeColor=#ae4132;" vertex="1" parent="1">
          <mxGeometry x="70" y="205" width="30" height="80" as="geometry" />
        </mxCell>
        <mxCell id="I_CS-igt-KB2UE6HuX3w-28" value="Adapter" style="rounded=0;whiteSpace=wrap;html=1;sketch=1;hachureGap=4;jiggle=2;curveFitting=1;fontFamily=Architects Daughter;fontSource=https%3A%2F%2Ffonts.googleapis.com%2Fcss%3Ffamily%3DArchitects%2BDaughter;direction=south;horizontal=0;fillColor=#b1ddf0;strokeColor=#10739e;" vertex="1" parent="1">
          <mxGeometry x="-100" y="205" width="30" height="80" as="geometry" />
        </mxCell>
        <mxCell id="I_CS-igt-KB2UE6HuX3w-29" value="Adapter" style="rounded=0;whiteSpace=wrap;html=1;sketch=1;hachureGap=4;jiggle=2;curveFitting=1;fontFamily=Architects Daughter;fontSource=https%3A%2F%2Ffonts.googleapis.com%2Fcss%3Ffamily%3DArchitects%2BDaughter;direction=south;horizontal=0;fillColor=#b1ddf0;strokeColor=#10739e;" vertex="1" parent="1">
          <mxGeometry x="100" y="205" width="30" height="80" as="geometry" />
        </mxCell>
        <mxCell id="I_CS-igt-KB2UE6HuX3w-32" value="" style="shape=hexagon;perimeter=hexagonPerimeter2;whiteSpace=wrap;html=1;fixedSize=1;sketch=1;hachureGap=4;jiggle=2;curveFitting=1;fontFamily=Architects Daughter;fontSource=https%3A%2F%2Ffonts.googleapis.com%2Fcss%3Ffamily%3DArchitects%2BDaughter;fillColor=#d5e8d4;strokeColor=#82b366;rotation=90;horizontal=0;direction=west;" vertex="1" parent="1">
          <mxGeometry x="-45" y="330" width="120" height="110" as="geometry" />
        </mxCell>
        <mxCell id="I_CS-igt-KB2UE6HuX3w-33" value="Port" style="rounded=0;whiteSpace=wrap;html=1;sketch=1;hachureGap=4;jiggle=2;curveFitting=1;fontFamily=Architects Daughter;fontSource=https%3A%2F%2Ffonts.googleapis.com%2Fcss%3Ffamily%3DArchitects%2BDaughter;direction=south;horizontal=0;fillColor=#fad9d5;strokeColor=#ae4132;" vertex="1" parent="1">
          <mxGeometry x="-70" y="345" width="30" height="80" as="geometry" />
        </mxCell>
        <mxCell id="I_CS-igt-KB2UE6HuX3w-34" value="Port" style="rounded=0;whiteSpace=wrap;html=1;sketch=1;hachureGap=4;jiggle=2;curveFitting=1;fontFamily=Architects Daughter;fontSource=https%3A%2F%2Ffonts.googleapis.com%2Fcss%3Ffamily%3DArchitects%2BDaughter;direction=south;horizontal=0;fillColor=#fad9d5;strokeColor=#ae4132;" vertex="1" parent="1">
          <mxGeometry x="70" y="345" width="30" height="80" as="geometry" />
        </mxCell>
        <mxCell id="I_CS-igt-KB2UE6HuX3w-35" value="Adapter" style="rounded=0;whiteSpace=wrap;html=1;sketch=1;hachureGap=4;jiggle=2;curveFitting=1;fontFamily=Architects Daughter;fontSource=https%3A%2F%2Ffonts.googleapis.com%2Fcss%3Ffamily%3DArchitects%2BDaughter;direction=south;horizontal=0;fillColor=#b1ddf0;strokeColor=#10739e;" vertex="1" parent="1">
          <mxGeometry x="-100" y="345" width="30" height="80" as="geometry" />
        </mxCell>
        <mxCell id="I_CS-igt-KB2UE6HuX3w-36" value="Adapter" style="rounded=0;whiteSpace=wrap;html=1;sketch=1;hachureGap=4;jiggle=2;curveFitting=1;fontFamily=Architects Daughter;fontSource=https%3A%2F%2Ffonts.googleapis.com%2Fcss%3Ffamily%3DArchitects%2BDaughter;direction=south;horizontal=0;fillColor=#b1ddf0;strokeColor=#10739e;" vertex="1" parent="1">
          <mxGeometry x="100" y="345" width="30" height="80" as="geometry" />
        </mxCell>
        <mxCell id="I_CS-igt-KB2UE6HuX3w-39" value="" style="shape=hexagon;perimeter=hexagonPerimeter2;whiteSpace=wrap;html=1;fixedSize=1;sketch=1;hachureGap=4;jiggle=2;curveFitting=1;fontFamily=Architects Daughter;fontSource=https%3A%2F%2Ffonts.googleapis.com%2Fcss%3Ffamily%3DArchitects%2BDaughter;fillColor=#d5e8d4;strokeColor=#82b366;rotation=90;horizontal=0;direction=west;" vertex="1" parent="1">
          <mxGeometry x="-45" y="470" width="120" height="110" as="geometry" />
        </mxCell>
        <mxCell id="I_CS-igt-KB2UE6HuX3w-40" value="Port" style="rounded=0;whiteSpace=wrap;html=1;sketch=1;hachureGap=4;jiggle=2;curveFitting=1;fontFamily=Architects Daughter;fontSource=https%3A%2F%2Ffonts.googleapis.com%2Fcss%3Ffamily%3DArchitects%2BDaughter;direction=south;horizontal=0;fillColor=#fad9d5;strokeColor=#ae4132;" vertex="1" parent="1">
          <mxGeometry x="-70" y="485" width="30" height="80" as="geometry" />
        </mxCell>
        <mxCell id="I_CS-igt-KB2UE6HuX3w-41" value="Port" style="rounded=0;whiteSpace=wrap;html=1;sketch=1;hachureGap=4;jiggle=2;curveFitting=1;fontFamily=Architects Daughter;fontSource=https%3A%2F%2Ffonts.googleapis.com%2Fcss%3Ffamily%3DArchitects%2BDaughter;direction=south;horizontal=0;fillColor=#fad9d5;strokeColor=#ae4132;" vertex="1" parent="1">
          <mxGeometry x="70" y="485" width="30" height="80" as="geometry" />
        </mxCell>
        <mxCell id="I_CS-igt-KB2UE6HuX3w-42" value="Adapter" style="rounded=0;whiteSpace=wrap;html=1;sketch=1;hachureGap=4;jiggle=2;curveFitting=1;fontFamily=Architects Daughter;fontSource=https%3A%2F%2Ffonts.googleapis.com%2Fcss%3Ffamily%3DArchitects%2BDaughter;direction=south;horizontal=0;fillColor=#b1ddf0;strokeColor=#10739e;" vertex="1" parent="1">
          <mxGeometry x="-100" y="485" width="30" height="80" as="geometry" />
        </mxCell>
        <mxCell id="I_CS-igt-KB2UE6HuX3w-43" value="Adapter" style="rounded=0;whiteSpace=wrap;html=1;sketch=1;hachureGap=4;jiggle=2;curveFitting=1;fontFamily=Architects Daughter;fontSource=https%3A%2F%2Ffonts.googleapis.com%2Fcss%3Ffamily%3DArchitects%2BDaughter;direction=south;horizontal=0;fillColor=#b1ddf0;strokeColor=#10739e;" vertex="1" parent="1">
          <mxGeometry x="100" y="485" width="30" height="80" as="geometry" />
        </mxCell>
        <mxCell id="I_CS-igt-KB2UE6HuX3w-49" value="Stocks" style="shape=hexagon;perimeter=hexagonPerimeter2;whiteSpace=wrap;html=1;fixedSize=1;sketch=1;hachureGap=4;jiggle=2;curveFitting=1;fontFamily=Architects Daughter;fontSource=https%3A%2F%2Ffonts.googleapis.com%2Fcss%3Ffamily%3DArchitects%2BDaughter;fillColor=#ffe6cc;strokeColor=#d79b00;rotation=90;horizontal=0;direction=west;" vertex="1" parent="1">
          <mxGeometry x="-20" y="490" width="70" height="70" as="geometry" />
        </mxCell>
        <mxCell id="I_CS-igt-KB2UE6HuX3w-50" value="API" style="text;html=1;align=center;verticalAlign=middle;whiteSpace=wrap;rounded=0;fontFamily=Architects Daughter;fontSource=https%3A%2F%2Ffonts.googleapis.com%2Fcss%3Ffamily%3DArchitects%2BDaughter;" vertex="1" parent="1">
          <mxGeometry x="-15" y="555" width="60" height="30" as="geometry" />
        </mxCell>
        <mxCell id="I_CS-igt-KB2UE6HuX3w-51" value="Model" style="text;html=1;align=center;verticalAlign=middle;whiteSpace=wrap;rounded=0;fontFamily=Architects Daughter;fontSource=https%3A%2F%2Ffonts.googleapis.com%2Fcss%3Ffamily%3DArchitects%2BDaughter;" vertex="1" parent="1">
          <mxGeometry x="-15" y="467" width="60" height="30" as="geometry" />
        </mxCell>
        <mxCell id="I_CS-igt-KB2UE6HuX3w-52" value="Products" style="shape=hexagon;perimeter=hexagonPerimeter2;whiteSpace=wrap;html=1;fixedSize=1;sketch=1;hachureGap=4;jiggle=2;curveFitting=1;fontFamily=Architects Daughter;fontSource=https%3A%2F%2Ffonts.googleapis.com%2Fcss%3Ffamily%3DArchitects%2BDaughter;fillColor=#ffe6cc;strokeColor=#d79b00;rotation=90;horizontal=0;direction=west;" vertex="1" parent="1">
          <mxGeometry x="-20" y="353" width="70" height="70" as="geometry" />
        </mxCell>
        <mxCell id="I_CS-igt-KB2UE6HuX3w-53" value="API" style="text;html=1;align=center;verticalAlign=middle;whiteSpace=wrap;rounded=0;fontFamily=Architects Daughter;fontSource=https%3A%2F%2Ffonts.googleapis.com%2Fcss%3Ffamily%3DArchitects%2BDaughter;" vertex="1" parent="1">
          <mxGeometry x="-15" y="418" width="60" height="30" as="geometry" />
        </mxCell>
        <mxCell id="I_CS-igt-KB2UE6HuX3w-54" value="Model" style="text;html=1;align=center;verticalAlign=middle;whiteSpace=wrap;rounded=0;fontFamily=Architects Daughter;fontSource=https%3A%2F%2Ffonts.googleapis.com%2Fcss%3Ffamily%3DArchitects%2BDaughter;" vertex="1" parent="1">
          <mxGeometry x="-15" y="330" width="60" height="30" as="geometry" />
        </mxCell>
        <mxCell id="I_CS-igt-KB2UE6HuX3w-55" value="Orders" style="shape=hexagon;perimeter=hexagonPerimeter2;whiteSpace=wrap;html=1;fixedSize=1;sketch=1;hachureGap=4;jiggle=2;curveFitting=1;fontFamily=Architects Daughter;fontSource=https%3A%2F%2Ffonts.googleapis.com%2Fcss%3Ffamily%3DArchitects%2BDaughter;fillColor=#ffe6cc;strokeColor=#d79b00;rotation=90;horizontal=0;direction=west;" vertex="1" parent="1">
          <mxGeometry x="-20" y="209" width="70" height="70" as="geometry" />
        </mxCell>
        <mxCell id="I_CS-igt-KB2UE6HuX3w-56" value="API" style="text;html=1;align=center;verticalAlign=middle;whiteSpace=wrap;rounded=0;fontFamily=Architects Daughter;fontSource=https%3A%2F%2Ffonts.googleapis.com%2Fcss%3Ffamily%3DArchitects%2BDaughter;" vertex="1" parent="1">
          <mxGeometry x="-15" y="274" width="60" height="30" as="geometry" />
        </mxCell>
        <mxCell id="I_CS-igt-KB2UE6HuX3w-57" value="Model" style="text;html=1;align=center;verticalAlign=middle;whiteSpace=wrap;rounded=0;fontFamily=Architects Daughter;fontSource=https%3A%2F%2Ffonts.googleapis.com%2Fcss%3Ffamily%3DArchitects%2BDaughter;" vertex="1" parent="1">
          <mxGeometry x="-15" y="186" width="60" height="30" as="geometry" />
        </mxCell>
        <mxCell id="I_CS-igt-KB2UE6HuX3w-58" value="Customers" style="shape=hexagon;perimeter=hexagonPerimeter2;whiteSpace=wrap;html=1;fixedSize=1;sketch=1;hachureGap=4;jiggle=2;curveFitting=1;fontFamily=Architects Daughter;fontSource=https%3A%2F%2Ffonts.googleapis.com%2Fcss%3Ffamily%3DArchitects%2BDaughter;fillColor=#ffe6cc;strokeColor=#d79b00;rotation=90;horizontal=0;direction=west;" vertex="1" parent="1">
          <mxGeometry x="-20" y="69" width="70" height="70" as="geometry" />
        </mxCell>
        <mxCell id="I_CS-igt-KB2UE6HuX3w-59" value="API" style="text;html=1;align=center;verticalAlign=middle;whiteSpace=wrap;rounded=0;fontFamily=Architects Daughter;fontSource=https%3A%2F%2Ffonts.googleapis.com%2Fcss%3Ffamily%3DArchitects%2BDaughter;" vertex="1" parent="1">
          <mxGeometry x="-15" y="134" width="60" height="30" as="geometry" />
        </mxCell>
        <mxCell id="I_CS-igt-KB2UE6HuX3w-60" value="Model" style="text;html=1;align=center;verticalAlign=middle;whiteSpace=wrap;rounded=0;fontFamily=Architects Daughter;fontSource=https%3A%2F%2Ffonts.googleapis.com%2Fcss%3Ffamily%3DArchitects%2BDaughter;" vertex="1" parent="1">
          <mxGeometry x="-15" y="46" width="60" height="30" as="geometry" />
        </mxCell>
        <mxCell id="I_CS-igt-KB2UE6HuX3w-61" value="" style="shape=flexArrow;endArrow=classic;html=1;sketch=1;hachureGap=4;jiggle=2;curveFitting=1;fontFamily=Architects Daughter;fontSource=https%3A%2F%2Ffonts.googleapis.com%2Fcss%3Ffamily%3DArchitects%2BDaughter;fillColor=#b1ddf0;strokeColor=#10739e;" edge="1" parent="1">
          <mxGeometry width="50" height="50" relative="1" as="geometry">
            <mxPoint x="15" y="750" as="sourcePoint" />
            <mxPoint x="15" y="640" as="targetPoint" />
          </mxGeometry>
        </mxCell>
        <mxCell id="I_CS-igt-KB2UE6HuX3w-63" value="Commands" style="edgeLabel;html=1;align=center;verticalAlign=middle;resizable=0;points=[];sketch=1;hachureGap=4;jiggle=2;curveFitting=1;fontFamily=Architects Daughter;fontSource=https%3A%2F%2Ffonts.googleapis.com%2Fcss%3Ffamily%3DArchitects%2BDaughter;rotation=90;" vertex="1" connectable="0" parent="I_CS-igt-KB2UE6HuX3w-61">
          <mxGeometry x="-0.097" y="-3" relative="1" as="geometry">
            <mxPoint x="12" as="offset" />
          </mxGeometry>
        </mxCell>
        <mxCell id="I_CS-igt-KB2UE6HuX3w-64" value="Plugin" style="rounded=0;whiteSpace=wrap;html=1;sketch=1;hachureGap=4;jiggle=2;curveFitting=1;fontFamily=Architects Daughter;fontSource=https%3A%2F%2Ffonts.googleapis.com%2Fcss%3Ffamily%3DArchitects%2BDaughter;direction=north;horizontal=1;fillColor=#b1ddf0;strokeColor=#10739e;textShadow=1;" vertex="1" parent="1">
          <mxGeometry x="130" y="65" width="90" height="500" as="geometry" />
        </mxCell>
      </root>
    </mxGraphModel>
  </diagram>
</mxfile>
